<?xml version="1.0"?>
<svg xmlns="http://www.w3.org/2000/svg" xmlns:xlink="http://www.w3.org/1999/xlink" xmlns:svgjs="http://svgjs.com/svgjs" version="1.1" width="512" height="512" x="0" y="0" viewBox="0 0 512.311 512.311" style="enable-background:new 0 0 512 512" xml:space="preserve"><g>
<g xmlns="http://www.w3.org/2000/svg">
	<g>
		<path d="M512.193,450.719l-32.427-132.352c-2.79-11.455-13.042-19.523-24.832-19.541H426.86v-42.667    c0-14.139-11.462-25.6-25.6-25.6v-17.067c5.193-0.024,10.092-2.411,13.312-6.485c3.369-3.958,4.751-9.235,3.755-14.336    L378.817,20.127c-2.682-11.908-13.398-20.266-25.6-19.968H158.828c-12.203-0.298-22.918,8.06-25.6,19.968L94.06,192.671    c-1.114,5.036,0.109,10.306,3.328,14.336c3.312,4.193,8.396,6.593,13.739,6.485v17.067c-14.138,0-25.6,11.461-25.6,25.6v42.667    H57.452c-11.79,0.019-22.042,8.087-24.832,19.541L0.193,450.378c-0.257,1.152-0.257,2.347,0,3.499    c0.18,0.709,0.438,1.396,0.768,2.048l20.821,41.728c4.272,8.885,13.267,14.527,23.125,14.507h422.571    c9.72,0.019,18.613-5.468,22.955-14.165l20.821-41.728c0.33-0.652,0.588-1.339,0.768-2.048    C512.336,453.078,512.395,451.884,512.193,450.719z M170.86,59.892c0-14.138,11.461-25.6,25.6-25.6h119.467    c14.138,0,25.6,11.461,25.6,25.6v93.867c0,14.138-11.462,25.6-25.6,25.6H196.46c-14.138,0-25.6-11.461-25.6-25.6V59.892z     M128.193,213.493h256v17.067h-256V213.493z M239.126,350.026h-8.533c-4.713,0-8.533-3.82-8.533-8.533s3.82-8.533,8.533-8.533    h8.533c4.713,0,8.533,3.821,8.533,8.533S243.839,350.026,239.126,350.026z M247.66,375.626c0,4.713-3.82,8.533-8.533,8.533h-8.533    c-4.713,0-8.533-3.82-8.533-8.533s3.82-8.533,8.533-8.533h8.533C243.839,367.092,247.66,370.913,247.66,375.626z M162.156,343.37    l-16.896,76.8c-0.894,3.969-4.466,6.755-8.533,6.656h-76.8c-2.582,0.009-5.029-1.152-6.656-3.157    c-1.65-2.029-2.279-4.702-1.707-7.253l17.067-76.8c0.881-3.906,4.359-6.674,8.363-6.656h76.8c2.582-0.009,5.029,1.152,6.656,3.157    C162.099,338.145,162.728,340.818,162.156,343.37z M196.46,418.293h-8.533c-4.713,0-8.533-3.82-8.533-8.533    s3.82-8.533,8.533-8.533h8.533c4.713,0,8.533,3.82,8.533,8.533S201.173,418.293,196.46,418.293z M196.46,384.159h-8.533    c-4.713,0-8.533-3.82-8.533-8.533s3.82-8.533,8.533-8.533h8.533c4.713,0,8.533,3.82,8.533,8.533S201.173,384.159,196.46,384.159z     M196.46,350.026h-8.533c-4.713,0-8.533-3.82-8.533-8.533s3.82-8.533,8.533-8.533h8.533c4.713,0,8.533,3.821,8.533,8.533    S201.173,350.026,196.46,350.026z M281.793,418.293h-51.2c-4.713,0-8.533-3.82-8.533-8.533s3.82-8.533,8.533-8.533h51.2    c4.713,0,8.533,3.82,8.533,8.533S286.506,418.293,281.793,418.293z M281.793,384.159h-8.533c-4.713,0-8.533-3.82-8.533-8.533    s3.821-8.533,8.533-8.533h8.533c4.713,0,8.533,3.82,8.533,8.533S286.506,384.159,281.793,384.159z M281.793,350.026h-8.533    c-4.713,0-8.533-3.82-8.533-8.533s3.821-8.533,8.533-8.533h8.533c4.713,0,8.533,3.821,8.533,8.533    S286.506,350.026,281.793,350.026z M298.86,273.226c0-4.713,3.82-8.533,8.533-8.533h76.8c4.713,0,8.533,3.821,8.533,8.533    c0,4.713-3.82,8.533-8.533,8.533h-76.8C302.68,281.759,298.86,277.939,298.86,273.226z M324.46,418.293h-8.533    c-4.713,0-8.533-3.82-8.533-8.533s3.82-8.533,8.533-8.533h8.533c4.713,0,8.533,3.82,8.533,8.533S329.173,418.293,324.46,418.293z     M324.46,384.159h-8.533c-4.713,0-8.533-3.82-8.533-8.533s3.82-8.533,8.533-8.533h8.533c4.713,0,8.533,3.82,8.533,8.533    S329.173,384.159,324.46,384.159z M324.46,350.026h-8.533c-4.713,0-8.533-3.82-8.533-8.533s3.82-8.533,8.533-8.533h8.533    c4.713,0,8.533,3.821,8.533,8.533S329.173,350.026,324.46,350.026z M459.116,423.668c-1.627,2.005-4.074,3.166-6.656,3.157h-76.8    c-4.067,0.099-7.639-2.687-8.533-6.656l-17.067-76.8c-0.573-2.552,0.056-5.225,1.707-7.253c1.664-2.053,4.185-3.219,6.827-3.157    h76.8c4.068-0.099,7.639,2.687,8.533,6.656l17.067,76.8C461.519,418.993,460.826,421.669,459.116,423.668z" fill="#ffffff" data-original="#000000" style=""/>
	</g>
</g>
<g xmlns="http://www.w3.org/2000/svg">
	<g>
		<polygon points="83.82,350.026 70.593,409.759 129.9,409.759 143.126,350.026   " fill="#ffffff" data-original="#000000" style=""/>
	</g>
</g>
<g xmlns="http://www.w3.org/2000/svg">
	<g>
		<polygon points="428.566,350.026 369.26,350.026 382.486,409.759 441.793,409.759   " fill="#ffffff" data-original="#000000" style=""/>
	</g>
</g>
<g xmlns="http://www.w3.org/2000/svg">
	<g>
		<path d="M315.926,51.359H196.46c-4.713,0-8.533,3.82-8.533,8.533v93.867c0,4.713,3.82,8.533,8.533,8.533h119.467    c4.713,0,8.533-3.821,8.533-8.533V59.892C324.46,55.18,320.639,51.359,315.926,51.359z M221.377,80.202    c-0.776,2.144-2.464,3.832-4.608,4.608c-2.065,0.913-4.42,0.913-6.485,0c-2.144-0.776-3.832-2.464-4.608-4.608    c-0.478-1.013-0.711-2.123-0.683-3.243c0.031-2.259,0.915-4.423,2.475-6.059c3.319-3.346,8.722-3.368,12.068-0.049    c0.017,0.016,0.033,0.033,0.049,0.049c0.777,0.812,1.386,1.769,1.792,2.816C222.29,75.782,222.29,78.136,221.377,80.202z     M290.326,85.492h-51.2c-4.713,0-8.533-3.82-8.533-8.533s3.82-8.533,8.533-8.533h51.2c4.713,0,8.533,3.82,8.533,8.533    S295.039,85.492,290.326,85.492z" fill="#ffffff" data-original="#000000" style=""/>
	</g>
</g>
<g xmlns="http://www.w3.org/2000/svg">
</g>
<g xmlns="http://www.w3.org/2000/svg">
</g>
<g xmlns="http://www.w3.org/2000/svg">
</g>
<g xmlns="http://www.w3.org/2000/svg">
</g>
<g xmlns="http://www.w3.org/2000/svg">
</g>
<g xmlns="http://www.w3.org/2000/svg">
</g>
<g xmlns="http://www.w3.org/2000/svg">
</g>
<g xmlns="http://www.w3.org/2000/svg">
</g>
<g xmlns="http://www.w3.org/2000/svg">
</g>
<g xmlns="http://www.w3.org/2000/svg">
</g>
<g xmlns="http://www.w3.org/2000/svg">
</g>
<g xmlns="http://www.w3.org/2000/svg">
</g>
<g xmlns="http://www.w3.org/2000/svg">
</g>
<g xmlns="http://www.w3.org/2000/svg">
</g>
<g xmlns="http://www.w3.org/2000/svg">
</g>
</g></svg>
